# xmcd
#
# Track frame offsets: 
#        150
#        14962
#        33538
#        52451
#        68012
#        81858
#        99679
#        111413
#        129273
#        151524
#        172166
#        189733
#        206489
#        223179
#        244530
#
# Disc length: 3852 seconds
#
# Revision: 2
# Processed by: cddbd v1.5.2PL0 Copyright (c) Steve Scherf et al.
# Submitted via: ExactAudioCopyFreeDBPlugin 1.0
#
DISCID=df0f0a0f
DTITLE=Pokahontaz - Rekontakt
DYEAR=2012
DGENRE=Hip-Hop
TTITLE0=Rekontakt
TTITLE1=Nie słuchaj
TTITLE2=Niemiłość (feat. Pezet)
TTITLE3=Róża wiatrów
TTITLE4=Veto (feat. Łona)
TTITLE5=Pompuj pompuj
TTITLE6=Zawód piosenkarz
TTITLE7=Kuszenie
TTITLE8=Jeszcze raz (feat. Emilyrose)
TTITLE9=Misz masz
TTITLE10=Stroboskopy
TTITLE11=Nastroje
TTITLE12=Straty po obu stronach
TTITLE13=Sory (feat. Grizzlee)
TTITLE14=Jak jest?
EXTD=
EXTT0=
EXTT1=
EXTT2=
EXTT3=
EXTT4=
EXTT5=
EXTT6=
EXTT7=
EXTT8=
EXTT9=
EXTT10=
EXTT11=
EXTT12=
EXTT13=
EXTT14=
PLAYORDER=
